<?xml version="1.0" encoding="UTF-8"?>
<svg id="Layer_1" xmlns="http://www.w3.org/2000/svg" version="1.1" viewBox="0 0 1714.4 1207.3">
  <!-- Generator: Adobe Illustrator 30.2.1, SVG Export Plug-In . SVG Version: 2.1.1 Build 1)  -->
  <defs>
    <style>
      .st0 {
        fill: #fff;
      }

      .st1 {
        fill: #f8991d;
      }
    </style>
  </defs>
  <g>
    <g>
      <polygon class="st0" points="1032.6 519.7 995 582 957.2 519.7 932 519.7 982.2 602.4 982.2 647.6 1005.8 647.6 1005.8 602.7 1056 519.7 1032.6 519.7"/>
      <polygon class="st0" points="1092.7 592.4 1154.4 592.4 1154.4 572.9 1092.7 572.9 1092.7 539.9 1162.3 539.9 1162.3 519.7 1069 519.7 1069 647.6 1164.8 647.6 1164.8 627.5 1092.7 627.5 1092.7 592.4"/>
      <path class="st0" d="M1230.8,519.7l-57.5,127.9h24.3l12.7-29.6h63.9l12.7,29.6h25l-57.7-127.9h-23.4ZM1218.3,599.4l24-56,23.9,56h-48Z"/>
      <path class="st0" d="M1409.9,604.9c8.1-3.7,14.3-8.8,18.7-15.5,4.4-6.7,6.6-14.7,6.6-24.1,0-14.1-4.8-25.2-14.5-33.3-9.7-8.1-23-12.2-40.1-12.2h-52.4v127.9h23.8v-37.3h28.9c1.7,0,3.4,0,5-.1l26.1,37.4h25.6l-29.4-41.9c.6-.3,1.3-.5,1.9-.8ZM1403.3,546.5c5.3,4.4,7.9,10.7,7.9,18.7s-2.6,14.3-7.9,18.8c-5.3,4.5-13.2,6.8-23.6,6.8h-27.8v-51h27.8c10.5,0,18.3,2.2,23.6,6.7Z"/>
      <path class="st0" d="M1548.9,594.9c-2.7-4.3-6.4-7.8-10.9-10.4-4.5-2.6-9.4-4.7-14.8-6.4-5.4-1.6-10.8-3.1-16.3-4.3-5.5-1.2-10.4-2.5-14.9-3.8-4.4-1.3-8-3.2-10.8-5.6-2.7-2.4-4.1-5.5-4.1-9.4s.9-6.1,2.8-8.7c1.9-2.6,4.9-4.7,9-6.3,4.1-1.6,9.4-2.4,15.9-2.4s11.4.8,17.5,2.5c6.1,1.6,12,4.2,17.7,7.6l7.5-18.4c-5.6-3.7-12.2-6.5-19.7-8.4s-15.2-2.9-22.8-2.9c-11.7,0-21.3,1.7-29,5.2-7.6,3.5-13.3,8.1-17,13.9-3.7,5.8-5.6,12.1-5.6,19.1s1.4,12.4,4.1,16.8c2.7,4.4,6.4,7.9,10.9,10.5,4.5,2.6,9.5,4.8,14.9,6.5,5.4,1.7,10.8,3.1,16.3,4.3,5.4,1.2,10.3,2.4,14.8,3.8,4.4,1.4,8.1,3.3,10.9,5.7,2.8,2.4,4.2,5.5,4.2,9.4s-1,6-2.9,8.5c-1.9,2.5-5,4.5-9.1,5.9-4.1,1.5-9.6,2.2-16.3,2.2s-15.6-1.3-23.2-4c-7.5-2.7-13.9-6-19-10l-8.2,18.4c5.5,4.5,12.8,8.2,21.8,11.1,9.1,2.9,18.6,4.3,28.6,4.3s21.4-1.7,29.1-5.2c7.7-3.5,13.4-8.1,17.1-13.9,3.7-5.8,5.6-12.1,5.6-18.9s-1.4-12.2-4.1-16.5Z"/>
    </g>
    <g>
      <path class="st1" d="M957.5,710.8l-15.9,14-9.5-11,25.9-21.9h15.7v79.5h-16.2v-60.6Z"/>
      <path class="st1" d="M1025.8,743c-.9.2-1.8.4-2.7.6-.9.2-1.8.2-2.8.2-3.7,0-7.1-.7-10.2-2-3.1-1.3-5.7-3.2-7.9-5.5-2.2-2.3-3.9-5.1-5-8.2-1.2-3.2-1.8-6.6-1.8-10.2s.8-7.8,2.3-11.2c1.5-3.3,3.6-6.2,6.3-8.6,2.7-2.4,5.8-4.2,9.4-5.6,3.6-1.3,7.5-2,11.7-2s8,.7,11.6,2c3.6,1.3,6.8,3.2,9.4,5.6,2.7,2.4,4.8,5.3,6.3,8.6,1.5,3.3,2.3,7.1,2.3,11.2s-.3,5.4-.8,7.8c-.5,2.4-1.2,4.6-2.1,6.7-.9,2.1-1.9,4.1-3,6-1.2,1.9-2.4,3.9-3.6,5.9l-17.4,27.2h-20.5l18.6-28.4ZM1012.2,718.6c0,3.6,1.2,6.6,3.5,8.9,2.4,2.4,5.4,3.5,9.3,3.5s6.9-1.2,9.3-3.5c2.4-2.4,3.5-5.3,3.5-8.9s-1.2-6.6-3.5-8.9c-2.4-2.4-5.4-3.5-9.3-3.5s-6.9,1.2-9.3,3.5c-2.4,2.4-3.5,5.3-3.5,8.9Z"/>
      <path class="st1" d="M1092.3,743c-.9.2-1.8.4-2.7.6-.9.2-1.8.2-2.8.2-3.7,0-7.1-.7-10.2-2-3.1-1.3-5.7-3.2-7.9-5.5-2.2-2.3-3.9-5.1-5-8.2-1.2-3.2-1.8-6.6-1.8-10.2s.8-7.8,2.3-11.2c1.5-3.3,3.6-6.2,6.3-8.6,2.7-2.4,5.8-4.2,9.4-5.6,3.6-1.3,7.5-2,11.7-2s8,.7,11.6,2c3.6,1.3,6.8,3.2,9.4,5.6,2.7,2.4,4.8,5.3,6.3,8.6,1.5,3.3,2.3,7.1,2.3,11.2s-.3,5.4-.8,7.8c-.5,2.4-1.2,4.6-2.1,6.7-.9,2.1-1.9,4.1-3,6-1.2,1.9-2.4,3.9-3.6,5.9l-17.4,27.2h-20.5l18.6-28.4ZM1078.7,718.6c0,3.6,1.2,6.6,3.5,8.9,2.4,2.4,5.4,3.5,9.3,3.5s6.9-1.2,9.3-3.5c2.4-2.4,3.5-5.3,3.5-8.9s-1.2-6.6-3.5-8.9c-2.4-2.4-5.4-3.5-9.3-3.5s-6.9,1.2-9.3,3.5c-2.4,2.4-3.5,5.3-3.5,8.9Z"/>
      <path class="st1" d="M1156.7,720.4c.9-.2,1.8-.4,2.7-.6.9-.1,1.8-.2,2.8-.2,3.7,0,7.1.7,10.2,2,3.1,1.3,5.7,3.2,7.9,5.5,2.2,2.3,3.9,5.1,5,8.2,1.2,3.2,1.8,6.6,1.8,10.2s-.8,7.8-2.3,11.2c-1.5,3.3-3.6,6.2-6.3,8.6-2.7,2.4-5.8,4.2-9.4,5.6-3.6,1.3-7.5,2-11.6,2s-8.1-.7-11.7-2c-3.6-1.3-6.7-3.2-9.4-5.6-2.7-2.4-4.8-5.3-6.3-8.6-1.5-3.3-2.3-7.1-2.3-11.2s.3-5.4.8-7.8,1.2-4.6,2.1-6.7c.9-2.1,1.9-4.1,3-6,1.2-1.9,2.4-3.9,3.6-5.9l17.4-27.2h20.5l-18.6,28.4ZM1170.3,744.8c0-3.6-1.2-6.6-3.5-8.9-2.4-2.4-5.4-3.5-9.3-3.5s-6.9,1.2-9.3,3.5c-2.4,2.4-3.5,5.3-3.5,8.9s1.2,6.6,3.5,8.9c2.4,2.4,5.4,3.5,9.3,3.5s6.9-1.2,9.3-3.5,3.5-5.3,3.5-8.9Z"/>
      <path class="st1" d="M1254.5,750.2h-27.6v-13.5h27.6v13.5Z"/>
      <path class="st1" d="M1296.1,753.6l30.9-27.7c1.6-1.4,3.1-3,4.7-4.8,1.6-1.8,2.4-3.9,2.4-6.3s-1-4.8-2.9-6.3c-1.9-1.5-4.2-2.3-6.8-2.3s-5.6,1-7.3,2.9c-1.8,1.9-2.8,4.3-3,7.2l-16.8-1.2c.2-4.1,1.1-7.7,2.6-10.7,1.5-3,3.5-5.6,5.9-7.6,2.5-2,5.4-3.5,8.7-4.5,3.3-1,6.9-1.5,10.8-1.5s7,.5,10.1,1.5c3.1,1,5.9,2.5,8.2,4.5,2.3,2,4.1,4.5,5.4,7.5,1.3,3,2,6.5,2,10.4s-.3,4.8-.8,6.9c-.5,2.1-1.3,3.9-2.2,5.6-.9,1.7-2,3.2-3.3,4.7-1.3,1.4-2.7,2.8-4.2,4.2l-24.1,20.8h35.2v14.8h-55.4v-17.8Z"/>
      <path class="st1" d="M1360.7,731.7c0-4.7.4-9.5,1.3-14.4.9-4.9,2.4-9.3,4.6-13.2,2.2-4,5.2-7.2,9-9.7,3.8-2.5,8.7-3.8,14.6-3.8s10.8,1.3,14.6,3.8c3.8,2.5,6.8,5.7,9,9.7,2.2,4,3.7,8.4,4.6,13.2.9,4.9,1.3,9.7,1.3,14.4s-.4,9.5-1.3,14.4c-.9,4.9-2.4,9.3-4.6,13.2-2.2,4-5.2,7.2-9,9.7-3.8,2.5-8.7,3.8-14.6,3.8s-10.8-1.3-14.6-3.8-6.8-5.7-9-9.7c-2.2-4-3.7-8.4-4.6-13.2-.9-4.9-1.3-9.7-1.3-14.4ZM1377.5,731.7c0,2.1,0,4.6.3,7.5.2,2.9.7,5.7,1.5,8.4.8,2.7,2.1,5,3.8,6.8,1.7,1.9,4.1,2.8,7.1,2.8s5.3-.9,7.1-2.8c1.7-1.9,3-4.2,3.8-6.8.8-2.7,1.3-5.5,1.5-8.4.2-2.9.3-5.4.3-7.5s0-4.6-.3-7.5c-.2-2.9-.7-5.7-1.5-8.4-.8-2.7-2.1-5-3.8-6.8-1.7-1.9-4.1-2.8-7.1-2.8s-5.4.9-7.1,2.8c-1.7,1.9-2.9,4.2-3.8,6.8-.8,2.7-1.3,5.5-1.5,8.4-.2,2.9-.3,5.4-.3,7.5Z"/>
      <path class="st1" d="M1428.9,753.6l30.9-27.7c1.6-1.4,3.1-3,4.7-4.8,1.6-1.8,2.4-3.9,2.4-6.3s-1-4.8-2.9-6.3c-1.9-1.5-4.2-2.3-6.8-2.3s-5.6,1-7.4,2.9c-1.8,1.9-2.8,4.3-3,7.2l-16.8-1.2c.2-4.1,1.1-7.7,2.6-10.7,1.5-3,3.5-5.6,5.9-7.6,2.5-2,5.4-3.5,8.7-4.5,3.3-1,6.9-1.5,10.8-1.5s7,.5,10.1,1.5c3.1,1,5.9,2.5,8.2,4.5,2.3,2,4.1,4.5,5.4,7.5,1.3,3,2,6.5,2,10.4s-.3,4.8-.8,6.9c-.5,2.1-1.3,3.9-2.2,5.6-.9,1.7-2,3.2-3.3,4.7-1.3,1.4-2.7,2.8-4.2,4.2l-24.1,20.8h35.2v14.8h-55.4v-17.8Z"/>
      <path class="st1" d="M1522.1,720.4c.9-.2,1.8-.4,2.7-.6.9-.1,1.8-.2,2.8-.2,3.7,0,7.1.7,10.2,2,3.1,1.3,5.7,3.2,7.9,5.5,2.2,2.3,3.9,5.1,5,8.2,1.2,3.2,1.8,6.6,1.8,10.2s-.8,7.8-2.3,11.2c-1.5,3.3-3.6,6.2-6.3,8.6-2.7,2.4-5.8,4.2-9.4,5.6-3.6,1.3-7.5,2-11.6,2s-8.1-.7-11.7-2c-3.6-1.3-6.7-3.2-9.4-5.6-2.7-2.4-4.8-5.3-6.3-8.6-1.5-3.3-2.3-7.1-2.3-11.2s.3-5.4.8-7.8c.5-2.4,1.2-4.6,2.1-6.7.9-2.1,1.9-4.1,3-6,1.2-1.9,2.4-3.9,3.6-5.9l17.4-27.2h20.5l-18.6,28.4ZM1535.7,744.8c0-3.6-1.2-6.6-3.5-8.9s-5.4-3.5-9.3-3.5-6.9,1.2-9.3,3.5c-2.4,2.4-3.5,5.3-3.5,8.9s1.2,6.6,3.5,8.9,5.4,3.5,9.3,3.5,6.9-1.2,9.3-3.5c2.4-2.4,3.5-5.3,3.5-8.9Z"/>
    </g>
  </g>
  <path class="st0" d="M610.1,811.8c0,158.3-126.5,286.5-282.5,286.5s-191.1-54.7-240.8-136.7l46.9-38.4c38.3,68.4,110.8,114.5,193.9,114.5,123.1,0,222.9-101.2,222.9-226s-95.1-221.2-214.1-225.9c-2.9-.1-5.8-.2-8.8-.2-28.6,0-56,5.5-81.1,15.5l58.9-75.1,190.1-242.6H149.1v-61.3h472.3l-48.1,61.3-193.3,246.6c131,24.9,230.1,141.5,230.1,281.6Z"/>
  <g>
    <path class="st1" d="M1619.1,790.8c-6.7,0-12.1,5.4-12.1,12.1s5.4,12.1,12.1,12.1,12.1-5.4,12.1-12.1-5.4-12.1-12.1-12.1Z"/>
    <path class="st1" d="M1585.6,861.6c-8.1,0-14.7,6.6-14.7,14.7s6.6,14.7,14.7,14.7,14.7-6.6,14.7-14.7-6.6-14.7-14.7-14.7Z"/>
    <path class="st1" d="M1540,926.2c-9.4,0-17.1,7.7-17.1,17.1s7.7,17.1,17.1,17.1,17.1-7.7,17.1-17.1-7.7-17.1-17.1-17.1Z"/>
    <path class="st1" d="M1483.6,982.8c-10.6,0-19.2,8.6-19.2,19.2s8.6,19.2,19.2,19.2,19.2-8.6,19.2-19.2-8.6-19.2-19.2-19.2Z"/>
    <path class="st1" d="M1417.9,1029.6c-11.7,0-21.1,9.5-21.1,21.1s9.5,21.1,21.1,21.1,21.1-9.5,21.1-21.1-9.5-21.1-21.1-21.1Z"/>
    <path class="st1" d="M1344.8,1065.1c-12.6,0-22.9,10.3-22.9,22.9s10.3,22.9,22.9,22.9,22.9-10.3,22.9-22.9-10.3-22.9-22.9-22.9Z"/>
    <path class="st1" d="M1266.3,1088.3c-13.5,0-24.4,10.9-24.4,24.4s10.9,24.4,24.4,24.4,24.4-10.9,24.4-24.4-10.9-24.4-24.4-24.4Z"/>
    <path class="st1" d="M1184.5,1098.3c-14.2,0-25.8,11.6-25.8,25.8s11.6,25.8,25.8,25.8,25.8-11.6,25.8-25.8-11.6-25.8-25.8-25.8Z"/>
    <path class="st1" d="M1101.8,1095c-14.9,0-27,12.1-27,27s12.1,27,27,27,27-12.1,27-27-12.1-27-27-27Z"/>
    <path class="st1" d="M1020.3,1078.4c-15.5,0-28.1,12.6-28.1,28.1s12.6,28.1,28.1,28.1,28.1-12.6,28.1-28.1-12.6-28.1-28.1-28.1Z"/>
    <path class="st1" d="M942.4,1048.6c-16,0-29,13-29,29s13,29,29,29,29-13,29-29-13-29-29-29Z"/>
    <path class="st1" d="M870.3,1006.5c-16.4,0-29.8,13.4-29.8,29.8s13.4,29.8,29.8,29.8,29.8-13.4,29.8-29.8-13.4-29.8-29.8-29.8Z"/>
    <path class="st1" d="M805.9,953.3c-16.8,0-30.4,13.7-30.4,30.4s13.7,30.4,30.4,30.4,30.4-13.7,30.4-30.4-13.7-30.4-30.4-30.4Z"/>
    <path class="st1" d="M751,890.4c-17.1,0-31,13.9-31,31s13.9,31,31,31,31-13.9,31-31-13.9-31-31-31Z"/>
    <path class="st1" d="M738.4,850.9c0-17.3-14.1-31.4-31.4-31.4s-31.4,14.1-31.4,31.4,14.1,31.4,31.4,31.4,31.4-14.1,31.4-31.4Z"/>
    <path class="st1" d="M707,774.2c0-17.5-14.2-31.7-31.7-31.7s-31.7,14.2-31.7,31.7,14.2,31.7,31.7,31.7,31.7-14.2,31.7-31.7Z"/>
    <path class="st1" d="M688.8,693.4c0-17.6-14.3-31.8-31.8-31.8s-31.8,14.3-31.8,31.8,14.3,31.8,31.8,31.8,31.8-14.3,31.8-31.8Z"/>
    <path class="st1" d="M652.1,642.6c17.6,0,31.9-14.3,31.9-31.9s-14.3-31.9-31.9-31.9-31.9,14.3-31.9,31.9,14.3,31.9,31.9,31.9Z"/>
    <path class="st1" d="M660.9,560.3c17.5,0,31.8-14.3,31.8-31.8s-14.3-31.8-31.8-31.8-31.8,14.3-31.8,31.8,14.3,31.8,31.8,31.8Z"/>
    <path class="st1" d="M683.3,480.6c17.4,0,31.6-14.2,31.6-31.6s-14.2-31.6-31.6-31.6-31.6,14.2-31.6,31.6,14.2,31.6,31.6,31.6Z"/>
    <path class="st1" d="M718.7,405.7c17.2,0,31.2-14,31.2-31.2s-14-31.2-31.2-31.2-31.2,14-31.2,31.2,14,31.2,31.2,31.2Z"/>
    <path class="st1" d="M766,337.7c17,0,30.8-13.8,30.8-30.8s-13.8-30.8-30.8-30.8-30.8,13.8-30.8,30.8,13.8,30.8,30.8,30.8Z"/>
    <path class="st1" d="M823.8,278.5c16.7,0,30.2-13.6,30.2-30.2s-13.6-30.2-30.2-30.2-30.2,13.6-30.2,30.2,13.6,30.2,30.2,30.2Z"/>
    <path class="st1" d="M890.7,229.6c16.3,0,29.5-13.2,29.5-29.5s-13.2-29.5-29.5-29.5-29.5,13.2-29.5,29.5,13.2,29.5,29.5,29.5Z"/>
    <path class="st1" d="M964.7,192.5c15.8,0,28.7-12.9,28.7-28.7s-12.9-28.7-28.7-28.7-28.7,12.9-28.7,28.7,12.9,28.7,28.7,28.7Z"/>
    <path class="st1" d="M1043.8,168.3c15.3,0,27.8-12.5,27.8-27.8s-12.5-27.8-27.8-27.8-27.8,12.5-27.8,27.8,12.5,27.8,27.8,27.8Z"/>
    <path class="st1" d="M1125.9,157.5c14.7,0,26.6-11.9,26.6-26.6s-11.9-26.6-26.6-26.6-26.6,11.9-26.6,26.6,11.9,26.6,26.6,26.6Z"/>
    <path class="st1" d="M1208.6,160.3c14,0,25.3-11.4,25.3-25.3s-11.4-25.3-25.3-25.3-25.3,11.4-25.3,25.3,11.4,25.3,25.3,25.3Z"/>
    <path class="st1" d="M1289.7,176.7c13.2,0,23.9-10.7,23.9-23.9s-10.7-23.9-23.9-23.9-23.9,10.7-23.9,23.9,10.7,23.9,23.9,23.9Z"/>
    <path class="st1" d="M1366.8,206.5c12.3,0,22.3-10,22.3-22.3s-10-22.3-22.3-22.3-22.3,10-22.3,22.3,10,22.3,22.3,22.3Z"/>
    <path class="st1" d="M1437.9,248.7c11.3,0,20.5-9.2,20.5-20.5s-9.2-20.5-20.5-20.5-20.5,9.2-20.5,20.5,9.2,20.5,20.5,20.5Z"/>
    <path class="st1" d="M1501,302c10.3,0,18.6-8.3,18.6-18.6s-8.3-18.6-18.6-18.6-18.6,8.3-18.6,18.6,8.3,18.6,18.6,18.6Z"/>
    <path class="st1" d="M1554.5,332.1c-9,0-16.4,7.4-16.4,16.4s7.4,16.4,16.4,16.4,16.4-7.4,16.4-16.4-7.4-16.4-16.4-16.4Z"/>
    <path class="st1" d="M1596.7,407.8c-7.7,0-14,6.3-14,14s6.3,14,14,14,14-6.3,14-14-6.3-14-14-14Z"/>
    <path class="st1" d="M1619.1,512.7c6.2,0,11.3-5.1,11.3-11.3s-5.1-11.3-11.3-11.3-11.3,5.1-11.3,11.3,5.1,11.3,11.3,11.3Z"/>
    <path class="st1" d="M1526.9,886.4c0-6.6-5.4-12-12-12s-12,5.4-12,12,5.4,12,12,12,12-5.4,12-12Z"/>
    <path class="st1" d="M1488,940.6c0-8.1-6.6-14.7-14.7-14.7s-14.7,6.6-14.7,14.7,6.6,14.7,14.7,14.7,14.7-6.6,14.7-14.7Z"/>
    <path class="st1" d="M1410.8,1009.8c9.4,0,17-7.6,17-17s-7.6-17-17-17-17,7.6-17,17,7.6,17,17,17Z"/>
    <path class="st1" d="M1338.7,1050.6c10.5,0,19.1-8.6,19.1-19.1s-8.6-19.1-19.1-19.1-19.1,8.6-19.1,19.1,8.6,19.1,19.1,19.1Z"/>
    <path class="st1" d="M1260,1076.1c11.5,0,20.9-9.4,20.9-20.9s-9.4-20.9-20.9-20.9-20.9,9.4-20.9,20.9,9.4,20.9,20.9,20.9Z"/>
    <path class="st1" d="M1177.8,1085.4c12.4,0,22.4-10.1,22.4-22.4s-10.1-22.4-22.4-22.4-22.4,10.1-22.4,22.4,10.1,22.4,22.4,22.4Z"/>
    <path class="st1" d="M1095.4,1078.3c13.1,0,23.8-10.7,23.8-23.8s-10.7-23.8-23.8-23.8-23.8,10.7-23.8,23.8,10.7,23.8,23.8,23.8Z"/>
    <path class="st1" d="M1016,1055.3c13.8,0,25-11.2,25-25s-11.2-25-25-25-25,11.2-25,25,11.2,25,25,25Z"/>
    <path class="st1" d="M942.6,1017c14.3,0,25.9-11.6,25.9-25.9s-11.6-25.9-25.9-25.9-25.9,11.6-25.9,25.9,11.6,25.9,25.9,25.9Z"/>
    <path class="st1" d="M878.1,911.8c-14.7,0-26.7,12-26.7,26.7s12,26.7,26.7,26.7,26.7-12,26.7-26.7-12-26.7-26.7-26.7Z"/>
    <path class="st1" d="M824.6,902.2c15.1,0,27.3-12.3,27.3-27.3s-12.3-27.3-27.3-27.3-27.3,12.3-27.3,27.3,12.3,27.3,27.3,27.3Z"/>
    <path class="st1" d="M784.2,830.1c15.3,0,27.8-12.5,27.8-27.8s-12.5-27.8-27.8-27.8-27.8,12.5-27.8,27.8,12.5,27.8,27.8,27.8Z"/>
    <path class="st1" d="M758.1,751.7c15.5,0,28.1-12.6,28.1-28.1s-12.6-28.1-28.1-28.1-28.1,12.6-28.1,28.1,12.6,28.1,28.1,28.1Z"/>
    <path class="st1" d="M747.5,669.7c15.6,0,28.3-12.7,28.3-28.3s-12.7-28.3-28.3-28.3-28.3,12.7-28.3,28.3,12.7,28.3,28.3,28.3Z"/>
    <path class="st1" d="M724,558.8c0,15.6,12.7,28.2,28.2,28.2s28.2-12.7,28.2-28.2-12.7-28.2-28.2-28.2-28.2,12.7-28.2,28.2Z"/>
    <path class="st1" d="M744.5,478.8c0,15.5,12.6,28,28,28s28-12.6,28-28-12.6-28-28-28-28,12.6-28,28Z"/>
    <path class="st1" d="M807.7,376.5c-15.3,0-27.7,12.4-27.7,27.7s12.4,27.7,27.7,27.7,27.7-12.4,27.7-27.7-12.4-27.7-27.7-27.7Z"/>
    <path class="st1" d="M829.2,337.7c0,15,12.2,27.2,27.2,27.2s27.2-12.2,27.2-27.2-12.2-27.2-27.2-27.2-27.2,12.2-27.2,27.2Z"/>
    <path class="st1" d="M890.5,282c0,14.6,11.9,26.5,26.5,26.5s26.5-11.9,26.5-26.5-11.9-26.5-26.5-26.5-26.5,11.9-26.5,26.5Z"/>
    <path class="st1" d="M961.6,239.2c0,14.2,11.5,25.7,25.7,25.7s25.7-11.5,25.7-25.7-11.5-25.7-25.7-25.7-25.7,11.5-25.7,25.7Z"/>
    <path class="st1" d="M1040,211c0,13.6,11.1,24.7,24.7,24.7s24.7-11.1,24.7-24.7-11.1-24.7-24.7-24.7-24.7,11.1-24.7,24.7Z"/>
    <path class="st1" d="M1169.9,198.7c0-12.9-10.5-23.5-23.5-23.5s-23.5,10.5-23.5,23.5,10.5,23.5,23.5,23.5,23.5-10.5,23.5-23.5Z"/>
    <path class="st1" d="M1251.1,202.8c0-12.2-9.9-22.1-22.1-22.1s-22.1,9.9-22.1,22.1,9.9,22.1,22.1,22.1,22.1-9.9,22.1-22.1Z"/>
    <path class="st1" d="M1330,223.2c0-11.3-9.2-20.5-20.5-20.5s-20.5,9.2-20.5,20.5,9.2,20.5,20.5,20.5,20.5-9.2,20.5-20.5Z"/>
    <path class="st1" d="M1403.4,259.3c0-10.3-8.4-18.6-18.6-18.6s-18.6,8.4-18.6,18.6,8.4,18.6,18.6,18.6,18.6-8.4,18.6-18.6Z"/>
    <path class="st1" d="M1468.3,309.8c0-9.1-7.4-16.6-16.6-16.6s-16.6,7.4-16.6,16.6,7.4,16.6,16.6,16.6,16.6-7.4,16.6-16.6Z"/>
    <path class="st1" d="M1508.1,358.3c-7.8,0-14.2,6.4-14.2,14.2s6.4,14.2,14.2,14.2,14.2-6.4,14.2-14.2-6.4-14.2-14.2-14.2Z"/>
    <path class="st1" d="M1548.6,430.7c-6.3,0-11.5,5.1-11.5,11.5s5.1,11.5,11.5,11.5,11.5-5.1,11.5-11.5-5.1-11.5-11.5-11.5Z"/>
    <path class="st1" d="M1399.4,933.1c0,6.6,5.4,12.1,12.1,12.1s12-5.4,12-12.1-5.4-12-12-12-12.1,5.4-12.1,12Z"/>
    <path class="st1" d="M1325.9,973.6c0,8.1,6.6,14.7,14.7,14.7s14.7-6.6,14.7-14.7-6.6-14.7-14.7-14.7-14.7,6.6-14.7,14.7Z"/>
    <path class="st1" d="M1244.9,996.5c0,9.4,7.6,17,17,17s17-7.6,17-17-7.6-17-17-17-17,7.6-17,17Z"/>
    <path class="st1" d="M1160.5,1000.2c0,10.4,8.5,18.9,18.9,18.9s18.9-8.5,18.9-18.9-8.5-18.9-18.9-18.9-18.9,8.5-18.9,18.9Z"/>
    <path class="st1" d="M1077.5,984.6c0,11.3,9.2,20.5,20.5,20.5s20.5-9.2,20.5-20.5-9.2-20.5-20.5-20.5-20.5,9.2-20.5,20.5Z"/>
    <path class="st1" d="M1022.2,928.5c-12,0-21.8,9.8-21.8,21.8s9.8,21.8,21.8,21.8,21.8-9.8,21.8-21.8-9.8-21.8-21.8-21.8Z"/>
    <path class="st1" d="M956.3,876.6c-12.6,0-22.9,10.3-22.9,22.9s10.3,22.9,22.9,22.9,22.9-10.3,22.9-22.9-10.3-22.9-22.9-22.9Z"/>
    <path class="st1" d="M903.4,811.6c-13,0-23.6,10.6-23.6,23.6s10.6,23.6,23.6,23.6,23.6-10.6,23.6-23.6-10.6-23.6-23.6-23.6Z"/>
    <path class="st1" d="M890.2,761c0-13.3-10.8-24.2-24.2-24.2s-24.2,10.8-24.2,24.2,10.8,24.2,24.2,24.2,24.2-10.8,24.2-24.2Z"/>
    <path class="st1" d="M845.9,705c13.5,0,24.5-11,24.5-24.5s-11-24.5-24.5-24.5-24.5,11-24.5,24.5,11,24.5,24.5,24.5Z"/>
    <path class="st1" d="M868.3,597.7c0-13.6-11.1-24.7-24.7-24.7s-24.7,11.1-24.7,24.7,11.1,24.7,24.7,24.7,24.7-11.1,24.7-24.7Z"/>
    <path class="st1" d="M834.8,516.6c0,13.5,11,24.5,24.5,24.5s24.5-11,24.5-24.5-11-24.5-24.5-24.5-24.5,11-24.5,24.5Z"/>
    <path class="st1" d="M916.6,441.2c0-13.3-10.8-24.2-24.2-24.2s-24.2,10.8-24.2,24.2,10.8,24.1,24.2,24.1,24.2-10.8,24.2-24.1Z"/>
    <path class="st1" d="M965.2,375.2c0-13-10.6-23.6-23.6-23.6s-23.6,10.6-23.6,23.6,10.6,23.6,23.6,23.6,23.6-10.6,23.6-23.6Z"/>
    <path class="st1" d="M1027.3,322.2c0-12.6-10.3-22.9-22.9-22.9s-22.9,10.3-22.9,22.9,10.3,22.9,22.9,22.9,22.9-10.3,22.9-22.9Z"/>
    <path class="st1" d="M1099.9,285.5c0-12-9.8-21.8-21.8-21.8s-21.8,9.8-21.8,21.8,9.8,21.8,21.8,21.8,21.8-9.8,21.8-21.8Z"/>
    <path class="st1" d="M1179,267.6c0-11.3-9.2-20.5-20.5-20.5s-20.5,9.2-20.5,20.5,9.2,20.5,20.5,20.5,20.5-9.2,20.5-20.5Z"/>
    <path class="st1" d="M1260,269.4c0-10.4-8.5-18.9-18.9-18.9s-18.9,8.5-18.9,18.9,8.5,18.9,18.9,18.9,18.9-8.5,18.9-18.9Z"/>
    <path class="st1" d="M1338.3,291.2c0-9.4-7.6-17-17-17s-17,7.6-17,17,7.6,17,17,17,17-7.6,17-17Z"/>
    <path class="st1" d="M1409.3,331.7c0-8.2-6.7-14.8-14.8-14.8s-14.8,6.7-14.8,14.8,6.7,14.8,14.8,14.8,14.8-6.7,14.8-14.8Z"/>
    <path class="st1" d="M1473,392.4c0-6.7-5.5-12.2-12.2-12.2s-12.2,5.5-12.2,12.2,5.5,12.2,12.2,12.2,12.2-5.5,12.2-12.2Z"/>
  </g>
</svg>